<svg width="220" height="220" viewBox="0 0 220 220" xmlns="http://www.w3.org/2000/svg"><g fill="none" fill-rule="evenodd"><path d="M0 0h220v220H0z"/><g opacity=".1" stroke="#000"><path d="M50.29 30.104c4.997.855 16.966 6.848 14.357 14.346-1.74 5-9.217 8.022-22.43 9.069-.34-6.596 1.9-10.516 6.72-11.76-2.851-2.213 4.682-6.445 1.354-11.655z"/><path d="M65.014 45.065c3.172 1.65 8.103 1.65 5.402 8.454-2.701 6.804-20.139 11.692-32.883 11.692-2.445-5.773-.895-9.67 4.65-11.692 11.726-.732 19.336-3.55 22.83-8.454z"/><path d="M70.416 53.519c2.89 1.157 8.507 5.068 5.105 12.079-3.403 7.01-34.726 14.812-41.24 13.679-6.513-1.134-5.617-14.003 2.842-14.003 8.46 0 27.277-2.846 33.293-11.755z"/><path d="M75.726 65.33c3.532-1.313 8.468 2.58 6 9.35-2.468 6.768-28.127 5.32-37.39 3.69 0 0 12.446-2.55 19.077-5.169 11.076-4.374 12.313-7.871 12.313-7.871z"/></g><g opacity=".1" stroke="#000"><path d="M157.29 140.104c4.997.855 16.966 6.848 14.357 14.346-1.74 5-9.217 8.022-22.43 9.069-.34-6.596 1.9-10.516 6.72-11.76-2.851-2.213 4.682-6.445 1.354-11.655z"/><path d="M172.014 155.065c3.172 1.65 8.103 1.65 5.402 8.454-2.701 6.804-20.139 11.692-32.883 11.692-2.445-5.773-.895-9.67 4.65-11.692 11.726-.732 19.336-3.55 22.83-8.454z"/><path d="M177.416 163.519c2.89 1.157 8.507 5.068 5.105 12.079-3.403 7.01-34.726 14.812-41.24 13.679-6.513-1.134-5.617-14.003 2.842-14.003 8.46 0 27.277-2.846 33.293-11.755z"/><path d="M182.726 175.33c3.532-1.313 8.468 2.58 6 9.35-2.468 6.768-28.127 5.32-37.39 3.69 0 0 12.446-2.55 19.077-5.169 11.076-4.374 12.313-7.871 12.313-7.871z"/></g></g></svg>